<?xml version="1.0" encoding="UTF-8" standalone="no"?>
<!DOCTYPE svg PUBLIC "-//W3C//DTD SVG 1.1//EN"
 "http://www.w3.org/Graphics/SVG/1.1/DTD/svg11.dtd">
<!-- Generated by graphviz version 13.0.1 (20250615.1724)
 -->
<!-- Title: G Pages: 1 -->
<svg width="1238pt" height="2556pt"
 viewBox="0.00 0.00 1238.00 2556.00" xmlns="http://www.w3.org/2000/svg" xmlns:xlink="http://www.w3.org/1999/xlink">
<g id="graph0" class="graph" transform="scale(2.77778 2.77778) rotate(0) translate(4 916)">
<title>G</title>
<polygon fill="white" stroke="none" points="-4,4 -4,-916 441.75,-916 441.75,4 -4,4"/>
<!-- 13481257280 -->
<g id="node1" class="node">
<title>13481257280</title>
<polygon fill="none" stroke="black" points="108.88,-830 108.88,-911.5 328.88,-911.5 328.88,-830 108.88,-830"/>
<polygon fill="black" stroke="none" points="108.88,-830 108.88,-911.5 328.88,-911.5 328.88,-830 108.88,-830"/>
<polygon fill="black" stroke="none" points="110.88,-871 110.88,-909.5 326.88,-909.5 326.88,-871 110.88,-871"/>
<polygon fill="none" stroke="black" points="110.88,-871 110.88,-909.5 326.88,-909.5 326.88,-871 110.88,-871"/>
<text xml:space="preserve" text-anchor="start" x="178" y="-884.3" font-family="Helvetica,sans-Serif" font-weight="bold" font-size="16.00" fill="white">InputLayer</text>
<polygon fill="white" stroke="none" points="110.88,-832 110.88,-869 324.88,-869 324.88,-832 110.88,-832"/>
<polygon fill="none" stroke="black" points="110.88,-832 110.88,-869 324.88,-869 324.88,-832 110.88,-832"/>
<text xml:space="preserve" text-anchor="start" x="121.88" y="-845.7" font-family="Helvetica,sans-Serif" font-size="14.00">Output shape: </text>
<text xml:space="preserve" text-anchor="start" x="211.12" y="-845.7" font-family="Helvetica,sans-Serif" font-weight="bold" font-size="14.00">(None, 64, 64, 3)</text>
</g>
<!-- 13481258864 -->
<g id="node2" class="node">
<title>13481258864</title>
<polygon fill="none" stroke="black" points="7.5,-711.5 7.5,-793 430.25,-793 430.25,-711.5 7.5,-711.5"/>
<polygon fill="black" stroke="none" points="7.5,-711.5 7.5,-793 430.25,-793 430.25,-711.5 7.5,-711.5"/>
<polygon fill="black" stroke="none" points="9.5,-752.5 9.5,-791 428.25,-791 428.25,-752.5 9.5,-752.5"/>
<polygon fill="none" stroke="black" points="9.5,-752.5 9.5,-791 428.25,-791 428.25,-752.5 9.5,-752.5"/>
<text xml:space="preserve" text-anchor="start" x="160" y="-765.8" font-family="Helvetica,sans-Serif" font-weight="bold" font-size="16.00" fill="white">ZeroPadding2D</text>
<polygon fill="white" stroke="none" points="9.5,-713.5 9.5,-750.5 212.25,-750.5 212.25,-713.5 9.5,-713.5"/>
<polygon fill="none" stroke="black" points="9.5,-713.5 9.5,-750.5 212.25,-750.5 212.25,-713.5 9.5,-713.5"/>
<text xml:space="preserve" text-anchor="start" x="20.5" y="-727.2" font-family="Helvetica,sans-Serif" font-size="14.00">Input shape: </text>
<text xml:space="preserve" text-anchor="start" x="98.5" y="-727.2" font-family="Helvetica,sans-Serif" font-weight="bold" font-size="14.00">(None, 64, 64, 3)</text>
<polygon fill="white" stroke="none" points="214.25,-713.5 214.25,-750.5 428.25,-750.5 428.25,-713.5 214.25,-713.5"/>
<polygon fill="none" stroke="black" points="214.25,-713.5 214.25,-750.5 428.25,-750.5 428.25,-713.5 214.25,-713.5"/>
<text xml:space="preserve" text-anchor="start" x="225.25" y="-727.2" font-family="Helvetica,sans-Serif" font-size="14.00">Output shape: </text>
<text xml:space="preserve" text-anchor="start" x="314.5" y="-727.2" font-family="Helvetica,sans-Serif" font-weight="bold" font-size="14.00">(None, 70, 70, 3)</text>
</g>
<!-- 13481257280&#45;&gt;13481258864 -->
<g id="edge1" class="edge">
<title>13481257280&#45;&gt;13481258864</title>
<path fill="none" stroke="black" stroke-width="2" d="M218.88,-829.64C218.88,-829.64 218.88,-806.32 218.88,-806.32"/>
<polygon fill="black" stroke="black" stroke-width="2" points="222.38,-806.32 218.88,-796.32 215.38,-806.32 222.38,-806.32"/>
</g>
<!-- 13481311104 -->
<g id="node3" class="node">
<title>13481311104</title>
<polygon fill="none" stroke="black" points="3.75,-593 3.75,-674.5 434,-674.5 434,-593 3.75,-593"/>
<polygon fill="black" stroke="none" points="3.75,-593 3.75,-674.5 434,-674.5 434,-593 3.75,-593"/>
<polygon fill="black" stroke="none" points="5.75,-634 5.75,-672.5 432,-672.5 432,-634 5.75,-634"/>
<polygon fill="none" stroke="black" points="5.75,-634 5.75,-672.5 432,-672.5 432,-634 5.75,-634"/>
<text xml:space="preserve" text-anchor="start" x="188.88" y="-647.3" font-family="Helvetica,sans-Serif" font-weight="bold" font-size="16.00" fill="white">Conv2D</text>
<polygon fill="white" stroke="none" points="5.75,-595 5.75,-632 208.5,-632 208.5,-595 5.75,-595"/>
<polygon fill="none" stroke="black" points="5.75,-595 5.75,-632 208.5,-632 208.5,-595 5.75,-595"/>
<text xml:space="preserve" text-anchor="start" x="16.75" y="-608.7" font-family="Helvetica,sans-Serif" font-size="14.00">Input shape: </text>
<text xml:space="preserve" text-anchor="start" x="94.75" y="-608.7" font-family="Helvetica,sans-Serif" font-weight="bold" font-size="14.00">(None, 70, 70, 3)</text>
<polygon fill="white" stroke="none" points="210.5,-595 210.5,-632 432,-632 432,-595 210.5,-595"/>
<polygon fill="none" stroke="black" points="210.5,-595 210.5,-632 432,-632 432,-595 210.5,-595"/>
<text xml:space="preserve" text-anchor="start" x="221.5" y="-608.7" font-family="Helvetica,sans-Serif" font-size="14.00">Output shape: </text>
<text xml:space="preserve" text-anchor="start" x="310.75" y="-608.7" font-family="Helvetica,sans-Serif" font-weight="bold" font-size="14.00">(None, 64, 64, 32)</text>
</g>
<!-- 13481258864&#45;&gt;13481311104 -->
<g id="edge2" class="edge">
<title>13481258864&#45;&gt;13481311104</title>
<path fill="none" stroke="black" stroke-width="2" d="M218.88,-711.14C218.88,-711.14 218.88,-687.82 218.88,-687.82"/>
<polygon fill="black" stroke="black" stroke-width="2" points="222.38,-687.82 218.88,-677.82 215.38,-687.82 222.38,-687.82"/>
</g>
<!-- 13481310672 -->
<g id="node4" class="node">
<title>13481310672</title>
<polygon fill="none" stroke="black" points="0,-474.5 0,-556 437.75,-556 437.75,-474.5 0,-474.5"/>
<polygon fill="black" stroke="none" points="0,-474.5 0,-556 437.75,-556 437.75,-474.5 0,-474.5"/>
<polygon fill="black" stroke="none" points="2,-515.5 2,-554 435.75,-554 435.75,-515.5 2,-515.5"/>
<polygon fill="none" stroke="black" points="2,-515.5 2,-554 435.75,-554 435.75,-515.5 2,-515.5"/>
<text xml:space="preserve" text-anchor="start" x="143.88" y="-528.8" font-family="Helvetica,sans-Serif" font-weight="bold" font-size="16.00" fill="white">BatchNormalization</text>
<polygon fill="white" stroke="none" points="2,-476.5 2,-513.5 212.25,-513.5 212.25,-476.5 2,-476.5"/>
<polygon fill="none" stroke="black" points="2,-476.5 2,-513.5 212.25,-513.5 212.25,-476.5 2,-476.5"/>
<text xml:space="preserve" text-anchor="start" x="13" y="-490.2" font-family="Helvetica,sans-Serif" font-size="14.00">Input shape: </text>
<text xml:space="preserve" text-anchor="start" x="91" y="-490.2" font-family="Helvetica,sans-Serif" font-weight="bold" font-size="14.00">(None, 64, 64, 32)</text>
<polygon fill="white" stroke="none" points="214.25,-476.5 214.25,-513.5 435.75,-513.5 435.75,-476.5 214.25,-476.5"/>
<polygon fill="none" stroke="black" points="214.25,-476.5 214.25,-513.5 435.75,-513.5 435.75,-476.5 214.25,-476.5"/>
<text xml:space="preserve" text-anchor="start" x="225.25" y="-490.2" font-family="Helvetica,sans-Serif" font-size="14.00">Output shape: </text>
<text xml:space="preserve" text-anchor="start" x="314.5" y="-490.2" font-family="Helvetica,sans-Serif" font-weight="bold" font-size="14.00">(None, 64, 64, 32)</text>
</g>
<!-- 13481311104&#45;&gt;13481310672 -->
<g id="edge3" class="edge">
<title>13481311104&#45;&gt;13481310672</title>
<path fill="none" stroke="black" stroke-width="2" d="M218.88,-592.64C218.88,-592.64 218.88,-569.32 218.88,-569.32"/>
<polygon fill="black" stroke="black" stroke-width="2" points="222.38,-569.32 218.88,-559.32 215.38,-569.32 222.38,-569.32"/>
</g>
<!-- 13478688752 -->
<g id="node5" class="node">
<title>13478688752</title>
<polygon fill="none" stroke="black" points="0,-356 0,-437.5 437.75,-437.5 437.75,-356 0,-356"/>
<polygon fill="black" stroke="none" points="0,-356 0,-437.5 437.75,-437.5 437.75,-356 0,-356"/>
<polygon fill="black" stroke="none" points="2,-397 2,-435.5 435.75,-435.5 435.75,-397 2,-397"/>
<polygon fill="none" stroke="black" points="2,-397 2,-435.5 435.75,-435.5 435.75,-397 2,-397"/>
<text xml:space="preserve" text-anchor="start" x="180.25" y="-410.3" font-family="Helvetica,sans-Serif" font-weight="bold" font-size="16.00" fill="white">Activation</text>
<polygon fill="white" stroke="none" points="2,-358 2,-395 212.25,-395 212.25,-358 2,-358"/>
<polygon fill="none" stroke="black" points="2,-358 2,-395 212.25,-395 212.25,-358 2,-358"/>
<text xml:space="preserve" text-anchor="start" x="13" y="-371.7" font-family="Helvetica,sans-Serif" font-size="14.00">Input shape: </text>
<text xml:space="preserve" text-anchor="start" x="91" y="-371.7" font-family="Helvetica,sans-Serif" font-weight="bold" font-size="14.00">(None, 64, 64, 32)</text>
<polygon fill="white" stroke="none" points="214.25,-358 214.25,-395 435.75,-395 435.75,-358 214.25,-358"/>
<polygon fill="none" stroke="black" points="214.25,-358 214.25,-395 435.75,-395 435.75,-358 214.25,-358"/>
<text xml:space="preserve" text-anchor="start" x="225.25" y="-371.7" font-family="Helvetica,sans-Serif" font-size="14.00">Output shape: </text>
<text xml:space="preserve" text-anchor="start" x="314.5" y="-371.7" font-family="Helvetica,sans-Serif" font-weight="bold" font-size="14.00">(None, 64, 64, 32)</text>
</g>
<!-- 13481310672&#45;&gt;13478688752 -->
<g id="edge4" class="edge">
<title>13481310672&#45;&gt;13478688752</title>
<path fill="none" stroke="black" stroke-width="2" d="M218.88,-474.14C218.88,-474.14 218.88,-450.82 218.88,-450.82"/>
<polygon fill="black" stroke="black" stroke-width="2" points="222.38,-450.82 218.88,-440.82 215.38,-450.82 222.38,-450.82"/>
</g>
<!-- 13478689184 -->
<g id="node6" class="node">
<title>13478689184</title>
<polygon fill="none" stroke="black" points="0,-237.5 0,-319 437.75,-319 437.75,-237.5 0,-237.5"/>
<polygon fill="black" stroke="none" points="0,-237.5 0,-319 437.75,-319 437.75,-237.5 0,-237.5"/>
<polygon fill="black" stroke="none" points="2,-278.5 2,-317 435.75,-317 435.75,-278.5 2,-278.5"/>
<polygon fill="none" stroke="black" points="2,-278.5 2,-317 435.75,-317 435.75,-278.5 2,-278.5"/>
<text xml:space="preserve" text-anchor="start" x="163.75" y="-291.8" font-family="Helvetica,sans-Serif" font-weight="bold" font-size="16.00" fill="white">MaxPooling2D</text>
<polygon fill="white" stroke="none" points="2,-239.5 2,-276.5 212.25,-276.5 212.25,-239.5 2,-239.5"/>
<polygon fill="none" stroke="black" points="2,-239.5 2,-276.5 212.25,-276.5 212.25,-239.5 2,-239.5"/>
<text xml:space="preserve" text-anchor="start" x="13" y="-253.2" font-family="Helvetica,sans-Serif" font-size="14.00">Input shape: </text>
<text xml:space="preserve" text-anchor="start" x="91" y="-253.2" font-family="Helvetica,sans-Serif" font-weight="bold" font-size="14.00">(None, 64, 64, 32)</text>
<polygon fill="white" stroke="none" points="214.25,-239.5 214.25,-276.5 435.75,-276.5 435.75,-239.5 214.25,-239.5"/>
<polygon fill="none" stroke="black" points="214.25,-239.5 214.25,-276.5 435.75,-276.5 435.75,-239.5 214.25,-239.5"/>
<text xml:space="preserve" text-anchor="start" x="225.25" y="-253.2" font-family="Helvetica,sans-Serif" font-size="14.00">Output shape: </text>
<text xml:space="preserve" text-anchor="start" x="314.5" y="-253.2" font-family="Helvetica,sans-Serif" font-weight="bold" font-size="14.00">(None, 32, 32, 32)</text>
</g>
<!-- 13478688752&#45;&gt;13478689184 -->
<g id="edge5" class="edge">
<title>13478688752&#45;&gt;13478689184</title>
<path fill="none" stroke="black" stroke-width="2" d="M218.88,-355.64C218.88,-355.64 218.88,-332.32 218.88,-332.32"/>
<polygon fill="black" stroke="black" stroke-width="2" points="222.38,-332.32 218.88,-322.32 215.38,-332.32 222.38,-332.32"/>
</g>
<!-- 4611148144 -->
<g id="node7" class="node">
<title>4611148144</title>
<polygon fill="none" stroke="black" points="11.25,-119 11.25,-200.5 426.5,-200.5 426.5,-119 11.25,-119"/>
<polygon fill="black" stroke="none" points="11.25,-119 11.25,-200.5 426.5,-200.5 426.5,-119 11.25,-119"/>
<polygon fill="black" stroke="none" points="13.25,-160 13.25,-198.5 424.5,-198.5 424.5,-160 13.25,-160"/>
<polygon fill="none" stroke="black" points="13.25,-160 13.25,-198.5 424.5,-198.5 424.5,-160 13.25,-160"/>
<text xml:space="preserve" text-anchor="start" x="192.62" y="-173.3" font-family="Helvetica,sans-Serif" font-weight="bold" font-size="16.00" fill="white">Flatten</text>
<polygon fill="white" stroke="none" points="13.25,-121 13.25,-158 223.5,-158 223.5,-121 13.25,-121"/>
<polygon fill="none" stroke="black" points="13.25,-121 13.25,-158 223.5,-158 223.5,-121 13.25,-121"/>
<text xml:space="preserve" text-anchor="start" x="24.25" y="-134.7" font-family="Helvetica,sans-Serif" font-size="14.00">Input shape: </text>
<text xml:space="preserve" text-anchor="start" x="102.25" y="-134.7" font-family="Helvetica,sans-Serif" font-weight="bold" font-size="14.00">(None, 32, 32, 32)</text>
<polygon fill="white" stroke="none" points="225.5,-121 225.5,-158 424.5,-158 424.5,-121 225.5,-121"/>
<polygon fill="none" stroke="black" points="225.5,-121 225.5,-158 424.5,-158 424.5,-121 225.5,-121"/>
<text xml:space="preserve" text-anchor="start" x="236.5" y="-134.7" font-family="Helvetica,sans-Serif" font-size="14.00">Output shape: </text>
<text xml:space="preserve" text-anchor="start" x="325.75" y="-134.7" font-family="Helvetica,sans-Serif" font-weight="bold" font-size="14.00">(None, 32768)</text>
</g>
<!-- 13478689184&#45;&gt;4611148144 -->
<g id="edge6" class="edge">
<title>13478689184&#45;&gt;4611148144</title>
<path fill="none" stroke="black" stroke-width="2" d="M218.88,-237.14C218.88,-237.14 218.88,-213.82 218.88,-213.82"/>
<polygon fill="black" stroke="black" stroke-width="2" points="222.38,-213.82 218.88,-203.82 215.38,-213.82 222.38,-213.82"/>
</g>
<!-- 4611147712 -->
<g id="node8" class="node">
<title>4611147712</title>
<polygon fill="none" stroke="black" points="37.5,-0.5 37.5,-82 400.25,-82 400.25,-0.5 37.5,-0.5"/>
<polygon fill="black" stroke="none" points="37.5,-0.5 37.5,-82 400.25,-82 400.25,-0.5 37.5,-0.5"/>
<polygon fill="black" stroke="none" points="39.5,-41.5 39.5,-80 398.25,-80 398.25,-41.5 39.5,-41.5"/>
<polygon fill="none" stroke="black" points="39.5,-41.5 39.5,-80 398.25,-80 398.25,-41.5 39.5,-41.5"/>
<text xml:space="preserve" text-anchor="start" x="194.88" y="-54.8" font-family="Helvetica,sans-Serif" font-weight="bold" font-size="16.00" fill="white">Dense</text>
<polygon fill="white" stroke="none" points="39.5,-2.5 39.5,-39.5 227.25,-39.5 227.25,-2.5 39.5,-2.5"/>
<polygon fill="none" stroke="black" points="39.5,-2.5 39.5,-39.5 227.25,-39.5 227.25,-2.5 39.5,-2.5"/>
<text xml:space="preserve" text-anchor="start" x="50.5" y="-16.2" font-family="Helvetica,sans-Serif" font-size="14.00">Input shape: </text>
<text xml:space="preserve" text-anchor="start" x="128.5" y="-16.2" font-family="Helvetica,sans-Serif" font-weight="bold" font-size="14.00">(None, 32768)</text>
<polygon fill="white" stroke="none" points="229.25,-2.5 229.25,-39.5 398.25,-39.5 398.25,-2.5 229.25,-2.5"/>
<polygon fill="none" stroke="black" points="229.25,-2.5 229.25,-39.5 398.25,-39.5 398.25,-2.5 229.25,-2.5"/>
<text xml:space="preserve" text-anchor="start" x="240.25" y="-16.2" font-family="Helvetica,sans-Serif" font-size="14.00">Output shape: </text>
<text xml:space="preserve" text-anchor="start" x="329.5" y="-16.2" font-family="Helvetica,sans-Serif" font-weight="bold" font-size="14.00">(None, 1)</text>
</g>
<!-- 4611148144&#45;&gt;4611147712 -->
<g id="edge7" class="edge">
<title>4611148144&#45;&gt;4611147712</title>
<path fill="none" stroke="black" stroke-width="2" d="M218.88,-118.64C218.88,-118.64 218.88,-95.32 218.88,-95.32"/>
<polygon fill="black" stroke="black" stroke-width="2" points="222.38,-95.32 218.88,-85.32 215.38,-95.32 222.38,-95.32"/>
</g>
</g>
</svg>
